<svg xmlns="http://www.w3.org/2000/svg" width="40" height="40" viewBox="0 0 40 40"><g><g><path fill="#eaeaea" d="M0 20C0 8.954 8.954 0 20 0s20 8.954 20 20-8.954 20-20 20S0 31.046 0 20zm27.674-3.094a8.05 8.05 0 0 0 1.975-2.049 7.888 7.888 0 0 1-2.274.623 3.967 3.967 0 0 0 1.741-2.19 7.93 7.93 0 0 1-2.514.961 3.959 3.959 0 0 0-6.747 3.611 11.242 11.242 0 0 1-8.16-4.137 3.958 3.958 0 0 0 1.225 5.286 3.955 3.955 0 0 1-1.793-.495v.05a3.961 3.961 0 0 0 3.175 3.882 3.983 3.983 0 0 1-1.787.067 3.962 3.962 0 0 0 3.698 2.75 7.943 7.943 0 0 1-4.917 1.695c-.32 0-.635-.019-.945-.055a11.214 11.214 0 0 0 6.07 1.778c7.282 0 11.264-6.032 11.264-11.264 0-.172-.004-.343-.011-.513"/></g></g></svg>