<svg xmlns="http://www.w3.org/2000/svg" width="40" height="40" viewBox="0 0 40 40"><g><g><path fill="#eaeaea" d="M0 20C0 8.954 8.954 0 20 0s20 8.954 20 20-8.954 20-20 20S0 31.046 0 20zm27.095 10.324a2.23 2.23 0 0 0 2.229-2.23V13.229A2.23 2.23 0 0 0 27.095 11H12.229A2.23 2.23 0 0 0 10 13.229v14.865a2.23 2.23 0 0 0 2.229 2.23zm0-11.149v8.167c0 .41-.333.742-.744.742H12.973a.743.743 0 0 1-.744-.742v-8.167h1.682a5.958 5.958 0 0 0-.195 1.485c0 3.28 2.662 5.94 5.946 5.94a5.943 5.943 0 0 0 5.946-5.94c0-.513-.073-1.01-.195-1.485zm0-5.203v2.23a.743.743 0 0 1-.744.743h-2.229a.742.742 0 0 1-.743-.743v-2.23c0-.41.332-.743.743-.743h2.229c.411 0 .744.333.744.743zm-7.433 2.973a3.717 3.717 0 1 1 0 7.435 3.717 3.717 0 0 1 0-7.435z"/></g></g></svg>