<svg xmlns="http://www.w3.org/2000/svg" width="40" height="40" viewBox="0 0 40 40"><g><g><path fill="#eaeaea" d="M0 20C0 8.954 8.954 0 20 0s20 8.954 20 20-8.954 20-20 20S0 31.046 0 20zm30.302.151C30.302 14.544 25.757 10 20.151 10S10 14.544 10 20.151c0 4.157 2.5 7.727 6.076 9.297-.028-.708-.005-1.559.177-2.33l1.306-5.532s-.324-.648-.324-1.606c0-1.504.872-2.628 1.958-2.628.923 0 1.369.694 1.369 1.524 0 .928-.592 2.317-.897 3.603-.254 1.076.54 1.955 1.603 1.955 1.923 0 3.218-2.47 3.218-5.397 0-2.225-1.498-3.89-4.224-3.89-3.079 0-4.997 2.296-4.997 4.861 0 .884.261 1.508.669 1.991.188.222.214.311.146.566-.049.187-.161.636-.207.814-.067.258-.276.349-.508.254-1.419-.579-2.079-2.132-2.079-3.878 0-2.883 2.432-6.341 7.255-6.341 3.876 0 6.426 2.805 6.426 5.815 0 3.982-2.213 6.957-5.477 6.957-1.096 0-2.127-.592-2.48-1.265 0 0-.589 2.339-.714 2.79-.215.783-.636 1.565-1.022 2.175.913.27 1.878.416 2.877.416 5.606 0 10.151-4.545 10.151-10.151"/></g></g></svg>